<mxfile host="app.diagrams.net" modified="2021-04-01T03:01:15.161Z" agent="5.0 (Windows NT 10.0; Win64; x64) AppleWebKit/537.36 (KHTML, like Gecko) Chrome/89.0.4389.90 Safari/537.36" etag="r9PYBnI2rCvyjIqyH68C" version="14.1.4" type="github">
  <diagram id="j-Lh6ehAnXIaDSYg2_rx" name="Page-1">
    <mxGraphModel dx="593" dy="281" grid="1" gridSize="10" guides="1" tooltips="1" connect="1" arrows="1" fold="1" page="1" pageScale="1" pageWidth="827" pageHeight="1169" math="0" shadow="0">
      <root>
        <mxCell id="0" />
        <mxCell id="1" parent="0" />
        <mxCell id="v2eVFN-beLmEgWOJFyrg-1" value="8级大风" style="ellipse;whiteSpace=wrap;html=1;aspect=fixed;fillColor=#17AAFF;strokeColor=none;fontColor=#FAFAFA;align=center;" vertex="1" parent="1">
          <mxGeometry x="200" y="150" width="80" height="80" as="geometry" />
        </mxCell>
        <mxCell id="v2eVFN-beLmEgWOJFyrg-2" value="架空线坠落&lt;br&gt;、乱设" style="ellipse;whiteSpace=wrap;html=1;aspect=fixed;fillColor=#17AAFF;strokeColor=none;fontColor=#FAFAFA;align=center;" vertex="1" parent="1">
          <mxGeometry x="270" y="320" width="80" height="80" as="geometry" />
        </mxCell>
        <mxCell id="v2eVFN-beLmEgWOJFyrg-4" value="架空线坠落&lt;br&gt;、乱设" style="ellipse;whiteSpace=wrap;html=1;aspect=fixed;fillColor=#17AAFF;strokeColor=none;fontColor=#FAFAFA;align=center;" vertex="1" parent="1">
          <mxGeometry x="390" y="190" width="80" height="80" as="geometry" />
        </mxCell>
        <mxCell id="v2eVFN-beLmEgWOJFyrg-5" value="突发事件" style="ellipse;whiteSpace=wrap;html=1;aspect=fixed;fillColor=#17AAFF;strokeColor=none;fontColor=#FAFAFA;align=center;" vertex="1" parent="1">
          <mxGeometry x="490" y="350" width="80" height="80" as="geometry" />
        </mxCell>
        <mxCell id="v2eVFN-beLmEgWOJFyrg-6" value="" style="endArrow=classic;html=1;entryX=0;entryY=0.5;entryDx=0;entryDy=0;strokeColor=#17AAFF;" edge="1" parent="1" source="v2eVFN-beLmEgWOJFyrg-1" target="v2eVFN-beLmEgWOJFyrg-4">
          <mxGeometry width="50" height="50" relative="1" as="geometry">
            <mxPoint x="390" y="310" as="sourcePoint" />
            <mxPoint x="440" y="260" as="targetPoint" />
          </mxGeometry>
        </mxCell>
        <mxCell id="v2eVFN-beLmEgWOJFyrg-7" value="" style="endArrow=classic;html=1;entryX=1;entryY=0;entryDx=0;entryDy=0;strokeColor=#17AAFF;dashed=1;" edge="1" parent="1" source="v2eVFN-beLmEgWOJFyrg-4" target="v2eVFN-beLmEgWOJFyrg-2">
          <mxGeometry width="50" height="50" relative="1" as="geometry">
            <mxPoint x="390" y="310" as="sourcePoint" />
            <mxPoint x="380" y="320" as="targetPoint" />
          </mxGeometry>
        </mxCell>
        <mxCell id="v2eVFN-beLmEgWOJFyrg-8" value="" style="endArrow=classic;html=1;entryX=0;entryY=0.5;entryDx=0;entryDy=0;strokeColor=#17AAFF;dashed=1;" edge="1" parent="1" source="v2eVFN-beLmEgWOJFyrg-2" target="v2eVFN-beLmEgWOJFyrg-5">
          <mxGeometry width="50" height="50" relative="1" as="geometry">
            <mxPoint x="390" y="310" as="sourcePoint" />
            <mxPoint x="440" y="260" as="targetPoint" />
          </mxGeometry>
        </mxCell>
        <mxCell id="v2eVFN-beLmEgWOJFyrg-9" value="&lt;font color=&quot;#ffffff&quot;&gt;73%&lt;/font&gt;" style="text;html=1;strokeColor=none;fillColor=none;align=center;verticalAlign=middle;whiteSpace=wrap;rounded=0;" vertex="1" parent="1">
          <mxGeometry x="320" y="200" width="40" height="20" as="geometry" />
        </mxCell>
        <mxCell id="v2eVFN-beLmEgWOJFyrg-10" value="&lt;font color=&quot;#ffffff&quot;&gt;所属小类&lt;/font&gt;" style="text;html=1;strokeColor=none;fillColor=none;align=center;verticalAlign=middle;whiteSpace=wrap;rounded=0;" vertex="1" parent="1">
          <mxGeometry x="330" y="280" width="60" height="20" as="geometry" />
        </mxCell>
        <mxCell id="v2eVFN-beLmEgWOJFyrg-12" value="&lt;font color=&quot;#ffffff&quot;&gt;所属大类&lt;/font&gt;" style="text;html=1;strokeColor=none;fillColor=none;align=center;verticalAlign=middle;whiteSpace=wrap;rounded=0;" vertex="1" parent="1">
          <mxGeometry x="390" y="360" width="56" height="20" as="geometry" />
        </mxCell>
      </root>
    </mxGraphModel>
  </diagram>
</mxfile>
